<svg width="112" height="112" viewBox="0 0 112 112" fill="none" xmlns="http://www.w3.org/2000/svg">
<path d="M0 55.9947C0 25.0697 25.0697 0 55.9947 0V0C86.9197 0 111.989 25.0697 111.989 55.9947V55.9947C111.989 86.9197 86.9197 111.989 55.9947 111.989V111.989C25.0697 111.989 0 86.9197 0 55.9947V55.9947Z" fill="#F3F4F6"/>
<g opacity="0.5">
<path d="M70.6607 74.6604H47.9951C44.5336 74.6596 41.1405 73.6961 38.195 71.8778C35.2495 70.0595 32.8676 67.458 31.3156 64.3639C29.7635 61.2698 29.1024 57.8051 29.4061 54.357C29.7098 50.9088 30.9664 47.613 33.0354 44.8378C35.1044 42.0627 37.9044 39.9176 41.1224 38.6422C44.3403 37.3667 47.8496 37.0113 51.258 37.6155C54.6664 38.2197 57.8396 39.7598 60.4231 42.0636C63.0066 44.3675 64.8985 47.3444 65.8876 50.6616H70.6607C73.8431 50.6616 76.8952 51.9258 79.1455 54.1762C81.3959 56.4265 82.6601 59.4786 82.6601 62.661C82.6601 65.8435 81.3959 68.8956 79.1455 71.1459C76.8952 73.3962 73.8431 74.6604 70.6607 74.6604Z" stroke="#99A1AF" stroke-width="5.33308" stroke-linecap="round" stroke-linejoin="round"/>
</g>
</svg>
